# xmcd
# 
# Track frame offsets:
#     150
#     14904
#     31915
#     56999
#     72277
#     90429
#     107393
#     123346
#     138906
#     158414
#     184018
#     204266
#     222644
#     246605
#     264214
#     279877
#     294505
# 
# Disc length: 4165
# 
# Revision: 1
# Processed by: cddbd v1.5.2PL0 Copyright (c) Steve Scherf et al.
# Submitted via: fre:ac v1.0.31
# 
DISCID=f4104311
DTITLE=UB40 - The Best Of UB40 Volume 2
DYEAR=2007
DGENRE=Rhythmic Soul
TTITLE0=Breakfast in bed
TTITLE1=Where did I go wrong?
TTITLE2=I would you for you
TTITLE3=Homely girl
TTITLE4=Here I am (Come and take me)
TTITLE5=Kingston town
TTITLE6=Wear you to the ball
TTITLE7=Can't help falling in love
TTITLE8=Higher ground
TTITLE9=Bring me your cup
TTITLE10=C'est la vie
TTITLE11=Reggae music
TTITLE12=Superstition
TTITLE13=Until my dying day
TTITLE14=Swing low (Bonus track)
TTITLE15=Kiss and say goodbye (Bonus track)
TTITLE16=Couvre là (Cover up) feat. Nuttea  (Bonus track)
EXTD=YEAR: 2007
EXTT0=
EXTT1=
EXTT2=
EXTT3=
EXTT4=
EXTT5=
EXTT6=
EXTT7=
EXTT8=
EXTT9=
EXTT10=
EXTT11=
EXTT12=
EXTT13=
EXTT14=
EXTT15=
EXTT16=
PLAYORDER=
